# xmcd
#
# Track frame offsets:
#	150
#	17063
#	30879
#	51714
#	70908
#	85428
#	100930
#	123339
#	143850
#	161714
#	184231
#	197622
#
# Disc length: 2868 seconds
#
# Revision: 0
# Processed by: cddbd v1.5.1PL2 Copyright (c) Steve Scherf et al.
# Submitted via: dBpowerAMP V4.0
#
DISCID=a70b320c
DTITLE=Keith Urban - Keith Urban
DYEAR=1999
DGENRE=Country
TTITLE0=It's a Love Thing
TTITLE1=Where the Blacktop Ends
TTITLE2=But for the Grace of God
TTITLE3=Your Everything
TTITLE4=I Wanna Be Your Man
TTITLE5=A Little Luck of Our Own
TTITLE6=You're the Only One
TTITLE7=If You Wanna Stay
TTITLE8=Don't Shut Me Out
TTITLE9=Out on My Own
TTITLE10=Rollercoaster
TTITLE11=I Thought You Knew
EXTD=
EXTT0=
EXTT1=
EXTT2=
EXTT3=
EXTT4=
EXTT5=
EXTT6=
EXTT7=
EXTT8=
EXTT9=
EXTT10=
EXTT11=
PLAYORDER=
